<svg width="1440" height="237" viewBox="0 0 1440 237" fill="#33ADD7" xmlns="http://www.w3.org/2000/svg">
<path d="M205.273 108.196C137.363 113.348 67.91 82.4348 0 97.8913L0 237L205.273 237L410.547 237L617.363 237L822.637 237H1027.91L1234.73 237L1406.04 237H1440V20.6087L1406.04 30.913C1372.09 41.2174 1302.64 61.8261 1234.73 51.5217C1165.27 41.2174 1097.36 0 1027.91 0C960 0 890.547 41.2174 822.637 56.6739C754.727 72.1304 685.273 61.8261 617.363 51.5217L615.543 51.2517C546.723 41.0393 479.393 31.0481 410.547 46.3696C342.637 61.8261 273.183 103.043 205.273 108.196Z" fill="#33ADD7"/>
</svg>
